# xmcd
#
# Track frame offsets:
#	150
#	14862
#	31915
#	51385
#	78687
#	87745
#	108422
#	123135
#	143785
#	160162
#	180409
#	193882
#	205290
#	217477
#	228690
#	247909
#	264690
#	276070
#	288270
#	297895
#	307430
#	319525
#
# Disc length: 4419 seconds
#
# Revision: 1
# Processed by: cddbd v1.5.2PL0 Copyright (c) Steve Scherf et al.
# Submitted via: audiograbber 1.83.01
#
DISCID=5e114116
DTITLE=Andrew Brown - Big Brown's Blues, Disk 1
DYEAR=2006
DGENRE=Blues
TTITLE0=No More Talking
TTITLE1=Your Love Is Important To Me
TTITLE2=Mary Jane
TTITLE3=It's Your Fault
TTITLE4=What's In It For Me
TTITLE5=Love Me
TTITLE6=You Started Something
TTITLE7=Tin Pan Alley
TTITLE8=I Want To Do
TTITLE9=You're Gonna Need Me
TTITLE10=You Better Stop
TTITLE11=You Ought To Be Ashamed
TTITLE12=Can't Let You Go
TTITLE13=For Liz
TTITLE14=Blue Monday
TTITLE15=(You Made Me) Suffer
TTITLE16=Got To Find A Way
TTITLE17=Share Your Love
TTITLE18=Something Can Go Wrong
TTITLE19=Let's Get Together
TTITLE20=First Love
TTITLE21=If We Try
EXTD=
EXTT0=
EXTT1=
EXTT2=
EXTT3=
EXTT4=
EXTT5=
EXTT6=
EXTT7=
EXTT8=
EXTT9=
EXTT10=
EXTT11=
EXTT12=
EXTT13=
EXTT14=
EXTT15=
EXTT16=
EXTT17=
EXTT18=
EXTT19=
EXTT20=
EXTT21=
PLAYORDER=
